
<svg version="1.1" viewBox="0.0 0.0 60.0 63.0" fill="none" stroke="none" stroke-linecap="square" stroke-miterlimit="10" xmlns:xlink="http://www.w3.org/1999/xlink" xmlns="http://www.w3.org/2000/svg"><clipPath id="g30c2767af12_0_0.0"><path d="m0 0l60.0 0l0 63.0l-60.0 0l0 -63.0z" clip-rule="nonzero"/></clipPath><g clip-path="url(#g30c2767af12_0_0.0)"><path fill="#000000" fill-opacity="0.0" d="m0 0l60.0 0l0 63.0l-60.0 0z" fill-rule="evenodd"/><g filter="url(#shadowFilter-g30c2767af12_0_0.1)"><use xlink:href="#g30c2767af12_0_0.1" transform="matrix(1.0 0.0 0.0 1.0 0.0 2.0)"/></g><defs><filter id="shadowFilter-g30c2767af12_0_0.1" filterUnits="userSpaceOnUse"><feGaussianBlur in="SourceAlpha" stdDeviation="2.0" result="blur"/><feComponentTransfer in="blur" color-interpolation-filters="sRGB"><feFuncR type="linear" slope="0" intercept="0.34901962"/><feFuncG type="linear" slope="0" intercept="0.34901962"/><feFuncB type="linear" slope="0" intercept="0.34901962"/><feFuncA type="linear" slope="0.5" intercept="0"/></feComponentTransfer></filter></defs><g id="g30c2767af12_0_0.1"><path fill="#ffd966" d="m10.502699 8.790027l0 0c0 -4.1747513 3.384305 -7.5590553 7.5590553 -7.5590553l0 0c2.0047855 0 3.9274616 0.79639816 5.3450584 2.213996c1.4175987 1.417598 2.213997 3.3402731 2.213997 5.3450594l0 0c0 4.1747503 -3.384304 7.5590544 -7.5590553 7.5590544l0 0c-4.1747503 0 -7.5590553 -3.384304 -7.5590553 -7.5590544z" fill-rule="evenodd"/><path stroke="#f3f3f3" stroke-width="1.0" stroke-linejoin="round" stroke-linecap="butt" d="m10.502699 8.790027l0 0c0 -4.1747513 3.384305 -7.5590553 7.5590553 -7.5590553l0 0c2.0047855 0 3.9274616 0.79639816 5.3450584 2.213996c1.4175987 1.417598 2.213997 3.3402731 2.213997 5.3450594l0 0c0 4.1747503 -3.384304 7.5590544 -7.5590553 7.5590544l0 0c-4.1747503 0 -7.5590553 -3.384304 -7.5590553 -7.5590544z" fill-rule="evenodd"/></g><g filter="url(#shadowFilter-g30c2767af12_0_0.2)"><use xlink:href="#g30c2767af12_0_0.2" transform="matrix(1.0 0.0 0.0 1.0 0.0 2.0)"/></g><defs><filter id="shadowFilter-g30c2767af12_0_0.2" filterUnits="userSpaceOnUse"><feGaussianBlur in="SourceAlpha" stdDeviation="2.0" result="blur"/><feComponentTransfer in="blur" color-interpolation-filters="sRGB"><feFuncR type="linear" slope="0" intercept="0.34901962"/><feFuncG type="linear" slope="0" intercept="0.34901962"/><feFuncB type="linear" slope="0" intercept="0.34901962"/><feFuncA type="linear" slope="0.5" intercept="0"/></feComponentTransfer></filter></defs><g id="g30c2767af12_0_0.2"><path fill="#eb5b57" d="m33.34054 29.694592l0 0c0 -4.1747513 3.384304 -7.5590553 7.5590553 -7.5590553l0 0c2.0047874 0 3.9274635 0.79639816 5.3450623 2.213995c1.4175949 1.4175987 2.213993 3.340273 2.213993 5.3450603l0 0c0 4.1747513 -3.384304 7.5590553 -7.5590553 7.5590553l0 0c-4.1747513 0 -7.5590553 -3.384304 -7.5590553 -7.5590553z" fill-rule="evenodd"/><path stroke="#f3f3f3" stroke-width="1.0" stroke-linejoin="round" stroke-linecap="butt" d="m33.34054 29.694592l0 0c0 -4.1747513 3.384304 -7.5590553 7.5590553 -7.5590553l0 0c2.0047874 0 3.9274635 0.79639816 5.3450623 2.213995c1.4175949 1.4175987 2.213993 3.340273 2.213993 5.3450603l0 0c0 4.1747513 -3.384304 7.5590553 -7.5590553 7.5590553l0 0c-4.1747513 0 -7.5590553 -3.384304 -7.5590553 -7.5590553z" fill-rule="evenodd"/></g><g filter="url(#shadowFilter-g30c2767af12_0_0.3)"><use xlink:href="#g30c2767af12_0_0.3" transform="matrix(1.0 0.0 0.0 1.0 0.0 2.0)"/></g><defs><filter id="shadowFilter-g30c2767af12_0_0.3" filterUnits="userSpaceOnUse"><feGaussianBlur in="SourceAlpha" stdDeviation="2.0" result="blur"/><feComponentTransfer in="blur" color-interpolation-filters="sRGB"><feFuncR type="linear" slope="0" intercept="0.34901962"/><feFuncG type="linear" slope="0" intercept="0.34901962"/><feFuncB type="linear" slope="0" intercept="0.34901962"/><feFuncA type="linear" slope="0.5" intercept="0"/></feComponentTransfer></filter></defs><g id="g30c2767af12_0_0.3"><path fill="#748c6a" d="m10.502699 50.598404l0 0c0 -4.1747513 3.384305 -7.5590553 7.5590553 -7.5590553l0 0c2.0047855 0 3.9274616 0.79639816 5.3450584 2.213997c1.4175987 1.4175987 2.213997 3.340271 2.213997 5.3450584l0 0c0 4.1747513 -3.384304 7.5590553 -7.5590553 7.5590553l0 0c-4.1747503 0 -7.5590553 -3.384304 -7.5590553 -7.5590553z" fill-rule="evenodd"/><path stroke="#f3f3f3" stroke-width="1.0" stroke-linejoin="round" stroke-linecap="butt" d="m10.502699 50.598404l0 0c0 -4.1747513 3.384305 -7.5590553 7.5590553 -7.5590553l0 0c2.0047855 0 3.9274616 0.79639816 5.3450584 2.213997c1.4175987 1.4175987 2.213997 3.340271 2.213997 5.3450584l0 0c0 4.1747513 -3.384304 7.5590553 -7.5590553 7.5590553l0 0c-4.1747503 0 -7.5590553 -3.384304 -7.5590553 -7.5590553z" fill-rule="evenodd"/></g></g></svg>
